<svg xmlns="http://www.w3.org/2000/svg" width="600" height="400" viewBox="0 0 600 400"><rect width="100%" height="100%" fill="#DDDDDD"/><path fill="#999999" d="M137.59 206.695q.38 0 .67.29l1.8 1.96q-1.5 1.85-3.68 2.84-2.19.98-5.25.98-2.73 0-4.92-.93-2.18-.94-3.73-2.6-1.55-1.67-2.37-3.98-.83-2.31-.83-5.05 0-2.77.89-5.08.88-2.3 2.49-3.97 1.6-1.66 3.83-2.59 2.23-.92 4.93-.92 2.69 0 4.77.88 2.08.88 3.54 2.31l-1.53 2.13q-.13.2-.34.35-.22.16-.59.16-.26 0-.53-.15-.27-.14-.59-.35-.33-.22-.75-.47-.43-.26-.99-.47-.56-.21-1.3-.36-.74-.14-1.71-.14-1.64 0-3.01.59-1.37.58-2.36 1.7-.98 1.11-1.53 2.72-.54 1.6-.54 3.66 0 2.07.59 3.69.58 1.61 1.58 2.72 1.01 1.1 2.37 1.69 1.36.59 2.92.59.94 0 1.69-.11.76-.1 1.4-.32.63-.22 1.2-.57t1.13-.86q.17-.15.36-.24.19-.1.39-.1Zm5-19.46h4.2v25.26h-4.2v-25.26Zm8.54 7.82h4.21v17.44h-4.21v-17.44Zm4.79-5.09q0 .55-.22 1.02-.22.48-.59.84-.36.35-.86.57-.49.21-1.05.21-.54 0-1.03-.21-.48-.22-.84-.57-.36-.36-.57-.84-.21-.47-.21-1.02 0-.56.21-1.05t.57-.85q.36-.36.84-.57.49-.21 1.03-.21.56 0 1.05.21.5.21.86.57.37.36.59.85.22.49.22 1.05Zm17.31 7.25-1.11 1.53q-.19.23-.37.37-.17.14-.51.14-.33 0-.63-.2-.31-.19-.73-.44-.43-.25-1.02-.44-.58-.2-1.45-.2-1.1 0-1.94.4-.83.4-1.38 1.15-.55.75-.83 1.81-.27 1.06-.27 2.4 0 1.4.3 2.49.3 1.08.86 1.82t1.36 1.13q.8.38 1.8.38t1.62-.25q.62-.24 1.05-.54.42-.3.74-.55.31-.24.7-.24.51 0 .77.39l1.2 1.53q-.69.81-1.51 1.37-.81.55-1.69.88-.87.33-1.8.47-.93.14-1.85.14-1.61 0-3.04-.61-1.43-.6-2.5-1.76-1.07-1.15-1.69-2.83-.62-1.67-.62-3.82 0-1.92.55-3.56.56-1.64 1.63-2.84 1.07-1.19 2.65-1.87 1.58-.68 3.64-.68 1.95 0 3.42.62 1.47.63 2.65 1.81Zm2.78-9.98h4.2v14.47h.78q.43 0 .68-.12.24-.11.5-.45l4.33-5.35q.27-.36.61-.55.33-.18.85-.18h3.85l-5.43 6.47q-.57.77-1.25 1.18.35.25.63.59.28.34.54.73l5.81 8.47h-3.79q-.49 0-.85-.16t-.59-.59l-4.46-6.61q-.24-.39-.49-.51-.26-.12-.77-.12h-.95v7.99h-4.2v-25.26Zm44.27.68v3.75h-7.41v20.83h-4.57v-20.83h-7.42v-3.75h19.4Zm10.29 6.87q1.93 0 3.52.62 1.59.63 2.72 1.79 1.13 1.16 1.75 2.82.61 1.67.61 3.72 0 2.08-.61 3.74-.62 1.67-1.75 2.84-1.13 1.18-2.72 1.81-1.59.63-3.52.63-1.96 0-3.56-.63-1.59-.63-2.73-1.81-1.13-1.17-1.75-2.84-.62-1.66-.62-3.74 0-2.05.62-3.72.62-1.66 1.75-2.82 1.14-1.16 2.73-1.79 1.6-.62 3.56-.62Zm0 14.73q2.17 0 3.22-1.46 1.04-1.46 1.04-4.28 0-2.82-1.04-4.3-1.05-1.48-3.22-1.48-2.21 0-3.28 1.49-1.06 1.48-1.06 4.29 0 2.8 1.06 4.27 1.07 1.47 3.28 1.47Zm25.9-6.3h7.82l-2.99-8.18q-.22-.54-.46-1.29-.23-.75-.47-1.62-.22.87-.46 1.63-.24.75-.46 1.31l-2.98 8.15Zm6.24-15.3 9.66 24.58h-3.54q-.59 0-.97-.3-.37-.3-.56-.74l-1.83-5.01h-10.19l-1.83 5.01q-.14.39-.53.72-.39.32-.97.32h-3.57l9.68-24.58h4.65Zm22.49 19.41v-7.82q-.71-.87-1.55-1.22-.84-.36-1.81-.36-.95 0-1.72.36-.76.35-1.31 1.08-.54.72-.83 1.83-.29 1.12-.29 2.63 0 1.53.25 2.59.24 1.06.7 1.74.46.67 1.12.97.67.29 1.48.29 1.31 0 2.23-.54.92-.55 1.73-1.55Zm0-20.09h4.2v25.26h-2.56q-.84 0-1.06-.77l-.35-1.68q-1.06 1.21-2.43 1.96t-3.18.75q-1.43 0-2.62-.6-1.19-.6-2.05-1.73-.86-1.13-1.33-2.79-.46-1.67-.46-3.81 0-1.94.52-3.6.53-1.67 1.52-2.89.98-1.23 2.36-1.92t3.09-.69q1.46 0 2.5.46t1.85 1.24v-9.19Zm19.3 20.09v-7.82q-.71-.87-1.56-1.22-.84-.36-1.81-.36-.95 0-1.71.36-.77.35-1.31 1.08-.55.72-.84 1.83-.28 1.12-.28 2.63 0 1.53.24 2.59.25 1.06.71 1.74.46.67 1.12.97.66.29 1.48.29 1.31 0 2.23-.54.91-.55 1.73-1.55Zm0-20.09h4.2v25.26h-2.57q-.83 0-1.05-.77l-.36-1.68q-1.05 1.21-2.42 1.96-1.37.75-3.19.75-1.43 0-2.62-.6-1.19-.6-2.05-1.73-.85-1.13-1.32-2.79-.47-1.67-.47-3.81 0-1.94.53-3.6.52-1.67 1.51-2.89.99-1.23 2.36-1.92 1.38-.69 3.1-.69 1.46 0 2.5.46 1.03.46 1.85 1.24v-9.19Zm21.84 12.37h2.86q1.29 0 2.25-.32t1.58-.89q.62-.57.93-1.35.31-.78.31-1.72 0-1.87-1.24-2.87-1.23-1.01-3.76-1.01h-2.93v8.16Zm8.47 3.81 6.15 9.08h-4.13q-1.17 0-1.7-.92l-5.16-7.87q-.29-.44-.64-.63-.35-.19-1.03-.19h-1.96v9.61h-4.57v-24.58h7.5q2.5 0 4.29.52 1.79.51 2.94 1.45 1.15.93 1.69 2.24.55 1.3.55 2.86 0 1.24-.37 2.35-.36 1.1-1.05 2-.69.9-1.7 1.58t-2.31 1.07q.45.26.82.61.37.35.68.82Zm15.88-8.63q1.94 0 3.53.62 1.59.63 2.72 1.79 1.13 1.16 1.74 2.82.61 1.67.61 3.72 0 2.08-.61 3.74-.61 1.67-1.74 2.84-1.13 1.18-2.72 1.81-1.59.63-3.53.63-1.96 0-3.55-.63-1.6-.63-2.73-1.81-1.13-1.17-1.75-2.84-.62-1.66-.62-3.74 0-2.05.62-3.72.62-1.66 1.75-2.82t2.73-1.79q1.59-.62 3.55-.62Zm0 14.73q2.17 0 3.22-1.46 1.05-1.46 1.05-4.28 0-2.82-1.05-4.3t-3.22-1.48q-2.21 0-3.27 1.49-1.07 1.48-1.07 4.29 0 2.8 1.07 4.27 1.06 1.47 3.27 1.47Zm19.53-14.73q1.94 0 3.53.62 1.59.63 2.72 1.79 1.13 1.16 1.74 2.82.61 1.67.61 3.72 0 2.08-.61 3.74-.61 1.67-1.74 2.84-1.13 1.18-2.72 1.81-1.59.63-3.53.63-1.95 0-3.55-.63-1.6-.63-2.73-1.81-1.13-1.17-1.75-2.84-.62-1.66-.62-3.74 0-2.05.62-3.72.62-1.66 1.75-2.82t2.73-1.79q1.6-.62 3.55-.62Zm0 14.73q2.18 0 3.22-1.46 1.05-1.46 1.05-4.28 0-2.82-1.05-4.3-1.04-1.48-3.22-1.48-2.21 0-3.27 1.49-1.06 1.48-1.06 4.29 0 2.8 1.06 4.27 1.06 1.47 3.27 1.47Zm16.02 2.98h-4.2v-17.44h2.56q.82 0 1.07.76l.28 1.29q.46-.51.96-.93.5-.43 1.07-.73.57-.31 1.22-.49.66-.17 1.44-.17 1.65 0 2.71.89t1.59 2.37q.41-.87 1.02-1.49.61-.62 1.34-1.01.73-.39 1.56-.58.82-.18 1.66-.18 1.44 0 2.56.44t1.89 1.29q.76.85 1.16 2.07.4 1.23.4 2.81v11.1h-4.2v-11.1q0-1.67-.73-2.51-.73-.84-2.14-.84-.64 0-1.2.22-.55.22-.97.64-.41.41-.65 1.04-.24.63-.24 1.45v11.1h-4.21v-11.1q0-1.75-.71-2.55-.71-.8-2.07-.8-.91 0-1.7.45-.79.45-1.47 1.23v12.77Zm37.77-12.22h3.42q1.25 0 2.19-.32.93-.31 1.55-.9.63-.59.93-1.43.31-.84.31-1.88 0-.98-.31-1.78-.3-.8-.92-1.36-.61-.56-1.54-.86-.94-.3-2.21-.3h-3.42v8.83Zm-4.57-12.36h7.99q2.46 0 4.26.58 1.81.57 2.98 1.61t1.74 2.48q.57 1.45.57 3.16 0 1.79-.59 3.28-.6 1.48-1.79 2.56-1.19 1.07-2.98 1.66-1.8.6-4.19.6h-3.42v8.65h-4.57v-24.58Zm20.43-.68h4.2v25.26h-4.2v-25.26Zm17.61 20.76v-2.95q-1.82.09-3.06.32t-1.99.58q-.74.36-1.07.84-.32.47-.32 1.03 0 1.11.65 1.59.66.47 1.71.47 1.29 0 2.24-.47.94-.46 1.84-1.41Zm-8.87-9.17-.75-1.34q3.01-2.76 7.24-2.76 1.53 0 2.74.51 1.21.5 2.04 1.39.83.89 1.27 2.13.43 1.24.43 2.72v11.02h-1.9q-.6 0-.92-.18-.33-.18-.51-.72l-.38-1.26q-.66.6-1.29 1.05-.63.45-1.31.75-.68.31-1.45.47-.77.16-1.71.16-1.1 0-2.04-.3-.93-.29-1.61-.89-.68-.59-1.06-1.48-.37-.88-.37-2.05 0-.67.22-1.32.22-.66.72-1.25.5-.6 1.3-1.12.8-.53 1.96-.92 1.17-.39 2.72-.64 1.54-.25 3.53-.3v-1.02q0-1.75-.75-2.59-.74-.84-2.15-.84-1.02 0-1.7.24-.67.24-1.18.53l-.92.54q-.42.24-.93.24-.44 0-.75-.23-.3-.23-.49-.54Zm20.55-3.01.29 1.38q.53-.53 1.11-.98.59-.45 1.24-.76.66-.32 1.41-.5.75-.17 1.63-.17 1.43 0 2.53.48 1.11.48 1.85 1.36.74.88 1.12 2.09.38 1.22.38 2.68v11.1h-4.2v-11.1q0-1.6-.73-2.47-.73-.88-2.23-.88-1.08 0-2.04.49-.95.5-1.8 1.35v12.61h-4.2v-17.44h2.57q.82 0 1.07.76Z"/></svg>