<svg xmlns="http://www.w3.org/2000/svg" width="600" height="400" viewBox="0 0 600 400"><rect width="100%" height="100%" fill="#DDDDDD"/><path fill="#999999" d="M137.795 203.985q.39 0 .7.31l1.91 2.07q-1.59 1.96-3.9 3-2.31 1.05-5.55 1.05-2.9 0-5.21-.99-2.32-.99-3.95-2.76-1.64-1.76-2.51-4.21-.88-2.45-.88-5.34 0-2.94.94-5.38.93-2.44 2.64-4.2 1.7-1.76 4.05-2.75 2.36-.98 5.22-.98 2.85 0 5.05.94 2.21.94 3.76 2.45l-1.62 2.25q-.15.21-.37.38-.23.16-.62.16-.27 0-.56-.16-.29-.15-.63-.37-.34-.23-.79-.5t-1.05-.49q-.59-.23-1.37-.38-.79-.15-1.81-.15-1.75 0-3.2.62-1.45.62-2.49 1.8-1.05 1.18-1.62 2.88-.58 1.7-.58 3.88 0 2.19.62 3.9t1.69 2.88q1.06 1.17 2.5 1.79 1.44.62 3.09.62.99 0 1.8-.1.8-.11 1.47-.35.68-.23 1.28-.6t1.2-.91q.18-.16.37-.26.2-.1.42-.1Zm5.29-20.61h4.45v26.75h-4.45v-26.75Zm9.04 8.28h4.46v18.47h-4.46v-18.47Zm5.07-5.38q0 .58-.23 1.08-.24.5-.62.88-.39.38-.91.6-.52.23-1.12.23-.57 0-1.09-.23-.51-.22-.89-.6t-.6-.88q-.23-.5-.23-1.08 0-.59.23-1.12.22-.52.6-.9.38-.37.89-.6.52-.22 1.09-.22.6 0 1.12.22.52.23.91.6.38.38.62.9.23.53.23 1.12Zm18.33 7.67-1.17 1.62q-.2.25-.39.39-.19.15-.55.15-.34 0-.67-.21-.32-.21-.77-.47t-1.07-.47q-.62-.2-1.54-.2-1.17 0-2.05.42-.88.42-1.47 1.22-.58.79-.87 1.91-.29 1.13-.29 2.55 0 1.48.32 2.63.31 1.15.9 1.93.6.79 1.44 1.19.85.41 1.91.41t1.72-.27q.66-.26 1.11-.57.45-.32.78-.58.33-.26.75-.26.54 0 .81.42l1.28 1.62q-.74.86-1.61 1.44-.86.59-1.79.94-.92.35-1.9.5-.99.14-1.96.14-1.71 0-3.22-.64-1.51-.64-2.65-1.86-1.13-1.23-1.79-3-.65-1.77-.65-4.04 0-2.03.58-3.77.59-1.74 1.72-3.01 1.13-1.27 2.81-1.99 1.67-.72 3.85-.72 2.07 0 3.63.67 1.55.67 2.8 1.91Zm2.95-10.57h4.44v15.32h.83q.45 0 .71-.12.26-.11.53-.47l4.59-5.67q.29-.38.64-.58.35-.2.91-.2h4.07l-5.74 6.86q-.61.81-1.33 1.24.37.27.67.63.3.36.57.78l6.15 8.96h-4.01q-.52 0-.9-.17t-.63-.62l-4.72-7q-.25-.42-.52-.54-.27-.13-.81-.13h-1.01v8.46h-4.44v-26.75Zm46.87.72v3.98h-7.85v22.05h-4.84v-22.05h-7.85v-3.98h20.54Zm10.89 7.27q2.05 0 3.74.67 1.68.67 2.88 1.89 1.19 1.22 1.84 2.99.65 1.76.65 3.94 0 2.2-.65 3.96-.65 1.76-1.84 3.01-1.2 1.24-2.88 1.9-1.69.67-3.74.67-2.07 0-3.76-.67-1.69-.66-2.89-1.9-1.2-1.25-1.85-3.01-.66-1.76-.66-3.96 0-2.18.66-3.94.65-1.77 1.85-2.99 1.2-1.22 2.89-1.89 1.69-.67 3.76-.67Zm0 15.61q2.3 0 3.41-1.55 1.11-1.55 1.11-4.53 0-2.99-1.11-4.56-1.11-1.56-3.41-1.56-2.34 0-3.46 1.57-1.13 1.58-1.13 4.55 0 2.97 1.13 4.52 1.12 1.56 3.46 1.56Zm27.43-6.68h8.28l-3.17-8.66q-.23-.57-.48-1.36-.25-.8-.51-1.71-.23.91-.48 1.71-.25.81-.49 1.4l-3.15 8.62Zm6.61-16.2 10.22 26.03h-3.74q-.63 0-1.03-.32-.39-.31-.59-.78l-1.95-5.31h-10.78l-1.94 5.31q-.15.42-.56.76-.41.34-1.03.34h-3.78l10.25-26.03h4.93Zm23.81 20.56v-8.28q-.75-.92-1.64-1.3-.9-.38-1.92-.38-1.01 0-1.82.38t-1.39 1.14q-.57.77-.88 1.95-.3 1.18-.3 2.78 0 1.62.26 2.74.26 1.13.74 1.84.49.71 1.19 1.03.7.31 1.57.31 1.38 0 2.36-.57.97-.58 1.83-1.64Zm0-21.28h4.45v26.75h-2.72q-.88 0-1.12-.81l-.37-1.78q-1.12 1.28-2.57 2.07-1.45.79-3.37.79-1.52 0-2.78-.63-1.26-.63-2.16-1.83-.91-1.19-1.41-2.96-.49-1.76-.49-4.03 0-2.05.55-3.82.56-1.76 1.61-3.06 1.04-1.29 2.5-2.02t3.27-.73q1.55 0 2.65.49 1.1.48 1.96 1.31v-9.74Zm20.43 21.28v-8.28q-.75-.92-1.64-1.3-.9-.38-1.92-.38-1.01 0-1.82.38t-1.39 1.14q-.57.77-.88 1.95-.3 1.18-.3 2.78 0 1.62.26 2.74.26 1.13.74 1.84.49.71 1.19 1.03.7.31 1.57.31 1.38 0 2.36-.57.97-.58 1.83-1.64Zm0-21.28h4.45v26.75h-2.72q-.88 0-1.12-.81l-.37-1.78q-1.12 1.28-2.57 2.07-1.45.79-3.37.79-1.52 0-2.78-.63-1.26-.63-2.16-1.83-.91-1.19-1.41-2.96-.49-1.76-.49-4.03 0-2.05.55-3.82.56-1.76 1.61-3.06 1.04-1.29 2.5-2.02t3.27-.73q1.55 0 2.65.49 1.1.48 1.96 1.31v-9.74Zm33.36 3.17-1.21 2.29q-.22.37-.46.54-.24.18-.6.18-.38 0-.82-.28-.44-.28-1.05-.62-.62-.35-1.43-.63-.82-.27-1.94-.27-1.01 0-1.76.24-.76.24-1.27.67-.52.44-.77 1.04-.25.6-.25 1.32 0 .92.51 1.53.52.61 1.36 1.05.85.43 1.93.77t2.21.73q1.14.39 2.22.9 1.08.51 1.92 1.29.85.79 1.36 1.92.51 1.14.51 2.76 0 1.76-.6 3.3-.6 1.54-1.76 2.68-1.16 1.14-2.84 1.8-1.67.66-3.83.66-1.24 0-2.45-.24-1.21-.25-2.31-.7-1.11-.45-2.08-1.08-.97-.63-1.73-1.4l1.42-2.32q.18-.26.47-.43.29-.17.61-.17.45 0 .97.37.53.37 1.25.82.72.45 1.68.82.96.37 2.31.37 2.07 0 3.21-.98 1.13-.98 1.13-2.82 0-1.03-.51-1.67-.52-.65-1.36-1.09-.85-.44-1.93-.75t-2.19-.67q-1.12-.36-2.2-.86t-1.93-1.31q-.84-.81-1.35-2.03-.52-1.21-.52-3 0-1.42.57-2.77t1.65-2.39q1.08-1.05 2.66-1.68 1.58-.63 3.64-.63 2.3 0 4.24.72 1.95.72 3.32 2.02Zm4.12 5.11h4.46v18.47h-4.46v-18.47Zm5.07-5.38q0 .58-.23 1.08-.23.5-.62.88t-.91.6q-.52.23-1.12.23-.57 0-1.08-.23-.52-.22-.9-.6-.37-.38-.6-.88-.22-.5-.22-1.08 0-.59.22-1.12.23-.52.6-.9.38-.37.9-.6.51-.22 1.08-.22.6 0 1.12.22.52.23.91.6.39.38.62.9.23.53.23 1.12Zm10.68 14.17q.83 0 1.44-.23.61-.22 1.02-.62.4-.4.61-.95.2-.56.2-1.23 0-1.37-.81-2.17-.82-.8-2.46-.8-1.64 0-2.46.8-.82.8-.82 2.17 0 .65.21 1.21.21.56.61.96.41.41 1.03.63.62.23 1.43.23Zm5.02 10.51q0-.54-.32-.88-.33-.35-.89-.54-.55-.18-1.3-.27-.75-.09-1.58-.14-.84-.04-1.73-.08t-1.74-.14q-.74.41-1.2.97-.46.56-.46 1.29 0 .49.25.91.24.43.77.73.53.31 1.38.48.84.17 2.07.17 1.24 0 2.14-.19.9-.19 1.49-.52.58-.33.85-.79t.27-1Zm-.88-18.67h5.31v1.66q0 .79-.96.97l-1.65.31q.38.95.38 2.08 0 1.37-.55 2.48-.55 1.11-1.52 1.88-.98.77-2.3 1.2-1.32.42-2.85.42-.54 0-1.05-.05-.5-.06-.99-.15-.86.52-.86 1.17 0 .56.51.82.52.26 1.36.37.85.11 1.93.13 1.08.03 2.21.12 1.14.09 2.22.32 1.08.22 1.92.71.85.48 1.36 1.32.51.84.51 2.15 0 1.23-.6 2.38t-1.74 2.05q-1.15.9-2.81 1.45-1.67.55-3.79.55-2.09 0-3.64-.41-1.55-.4-2.57-1.08-1.03-.67-1.53-1.55-.51-.89-.51-1.84 0-1.3.79-2.17.78-.87 2.15-1.39-.74-.38-1.17-1.01-.43-.63-.43-1.66 0-.41.15-.85t.45-.88q.3-.43.75-.82.45-.38 1.06-.69-1.41-.75-2.21-2.01-.8-1.26-.8-2.96 0-1.36.55-2.47t1.53-1.89q.98-.78 2.32-1.2 1.34-.41 2.93-.41 1.19 0 2.23.24t1.91.71Zm11.97.18.3 1.46q.56-.56 1.18-1.04.62-.47 1.32-.81.69-.33 1.48-.52t1.73-.19q1.51 0 2.68.52 1.17.51 1.96 1.44.78.92 1.18 2.21.41 1.29.41 2.84v11.75h-4.45v-11.75q0-1.7-.77-2.62-.78-.93-2.36-.93-1.15 0-2.16.52-1.01.52-1.91 1.42v13.36h-4.44v-18.47h2.71q.87 0 1.14.81Zm26.21 12.89v-3.11q-1.93.09-3.24.33-1.32.24-2.11.62-.79.38-1.13.88-.35.51-.35 1.1 0 1.17.7 1.67.69.51 1.81.51 1.36 0 2.36-.5 1-.49 1.96-1.5Zm-9.4-9.7-.79-1.42q3.18-2.92 7.67-2.92 1.62 0 2.89.53 1.28.53 2.16 1.48.89.94 1.35 2.26.45 1.31.45 2.88v11.66h-2.01q-.63 0-.97-.19-.35-.19-.54-.76l-.4-1.34q-.7.63-1.37 1.11-.66.48-1.38.8-.72.33-1.54.5-.82.17-1.81.17-1.17 0-2.16-.32-.99-.31-1.71-.94-.72-.63-1.12-1.57-.39-.93-.39-2.18 0-.7.23-1.39t.77-1.32q.53-.63 1.37-1.19.85-.56 2.08-.97 1.23-.42 2.87-.68 1.64-.26 3.75-.31v-1.08q0-1.86-.8-2.75-.79-.89-2.28-.89-1.08 0-1.79.25t-1.25.57q-.54.31-.98.57-.45.25-.99.25-.46 0-.79-.25-.32-.24-.52-.56Zm24.07 14.76q-2.42 0-3.7-1.36-1.29-1.36-1.29-3.75v-10.32h-1.89q-.36 0-.61-.23-.25-.24-.25-.7v-1.77l2.97-.48.93-5.04q.09-.36.34-.56.26-.2.65-.2h2.31v5.81h4.93v3.17h-4.93v10.01q0 .86.42 1.35.42.49 1.16.49.41 0 .69-.1.28-.1.49-.21.21-.11.37-.21.16-.1.32-.1.2 0 .33.1.12.1.27.3l1.33 2.16q-.97.81-2.23 1.22-1.26.42-2.61.42Zm18.7-18.76h4.44v18.47h-2.71q-.88 0-1.12-.81l-.31-1.48q-1.13 1.16-2.5 1.87-1.36.71-3.22.71-1.51 0-2.67-.52-1.16-.51-1.96-1.44-.79-.94-1.19-2.23-.41-1.28-.41-2.83v-11.74h4.45v11.74q0 1.69.78 2.62.78.92 2.35.92 1.15 0 2.16-.51 1.01-.51 1.91-1.41v-13.36Zm12.76 1.12.27 2.09q.86-1.66 2.05-2.61 1.19-.94 2.81-.94 1.28 0 2.05.56l-.28 3.33q-.09.32-.27.46-.17.13-.45.13t-.81-.09q-.53-.09-1.03-.09-.74 0-1.32.22-.57.21-1.03.62-.46.4-.81.98-.35.58-.66 1.31v11.38h-4.44v-18.47h2.61q.68 0 .95.24.27.25.36.88Zm13.01 5.99h8.39q0-.86-.24-1.63-.24-.76-.73-1.34-.49-.57-1.23-.91-.75-.33-1.74-.33-1.93 0-3.03 1.1-1.11 1.1-1.42 3.11Zm11.34 2.68h-11.42q.1 1.43.5 2.46.39 1.04 1.04 1.71.65.68 1.54 1.01.89.33 1.97.33t1.87-.25q.78-.25 1.36-.56.59-.3 1.03-.56.44-.25.85-.25.56 0 .83.42l1.28 1.62q-.74.86-1.66 1.44-.91.59-1.91.94-1 .35-2.04.5-1.03.14-2 .14-1.93 0-3.59-.64-1.65-.64-2.88-1.89-1.22-1.25-1.92-3.1-.7-1.84-.7-4.27 0-1.89.61-3.56.61-1.66 1.75-2.89 1.15-1.24 2.79-1.96 1.65-.72 3.72-.72 1.75 0 3.22.56 1.48.56 2.54 1.63 1.06 1.07 1.67 2.63.6 1.56.6 3.55 0 1.01-.22 1.36-.21.35-.83.35Z"/></svg>